<mxfile host="65bd71144e">
    <diagram id="ld7ND8hMP7wtq6Na8yBu" name="Page-1">
        <mxGraphModel dx="751" dy="307" grid="1" gridSize="10" guides="1" tooltips="1" connect="1" arrows="1" fold="1" page="1" pageScale="1" pageWidth="850" pageHeight="1100" math="0" shadow="0">
            <root>
                <mxCell id="0"/>
                <mxCell id="1" parent="0"/>
                <mxCell id="edge1" style="rounded=1;html=1;exitX=0.948;exitY=0;entryX=0.0606;entryY=1;jettySize=auto;curved=0;endArrow=block;dashed=0;endFill=1;fontFamily=Lucida Console;fontSize=7;" parent="1" source="node2" target="node3" edge="1">
                    <mxGeometry relative="1" as="geometry">
                        <Array as="points">
                            <mxPoint x="1398.72" y="3932.4700000000003"/>
                            <mxPoint x="1413.59" y="3881.2000000000003"/>
                            <mxPoint x="1427.22" y="3839.8200000000006"/>
                        </Array>
                    </mxGeometry>
                </mxCell>
                <mxCell id="edge22" style="rounded=1;html=1;exitX=0.5;exitY=0;entryX=0.5;entryY=1;jettySize=auto;curved=0;endArrow=block;dashed=0;endFill=1;fontFamily=Lucida Console;fontSize=7;" parent="1" source="node3" target="node22" edge="1">
                    <mxGeometry relative="1" as="geometry"/>
                </mxCell>
                <mxCell id="edge2" style="rounded=1;html=1;exitX=0.5;exitY=0;entryX=0.5;entryY=1;jettySize=auto;curved=0;endArrow=block;dashed=0;endFill=1;fontFamily=Lucida Console;fontSize=7;" parent="1" source="node4" target="node3" edge="1">
                    <mxGeometry relative="1" as="geometry"/>
                </mxCell>
                <mxCell id="edge3" style="rounded=1;html=1;exitX=0.5;exitY=0;entryX=0.308;entryY=1;jettySize=auto;curved=0;endArrow=block;dashed=0;endFill=1;fontFamily=Lucida Console;fontSize=7;" parent="1" source="node5" target="node6" edge="1">
                    <mxGeometry relative="1" as="geometry"/>
                </mxCell>
                <mxCell id="edge25" style="rounded=1;html=1;exitX=0.0421;exitY=0;entryX=0.5;entryY=1;jettySize=auto;curved=0;endArrow=block;dashed=0;endFill=1;fontFamily=Lucida Console;fontSize=7;" parent="1" source="node6" target="node8" edge="1">
                    <mxGeometry relative="1" as="geometry">
                        <Array as="points">
                            <mxPoint x="1285.18" y="2209.6300000000006"/>
                            <mxPoint x="1232.59" y="2174.4000000000005"/>
                            <mxPoint x="541.59" y="2156.4000000000005"/>
                            <mxPoint x="391.07" y="1899.3700000000003"/>
                        </Array>
                    </mxGeometry>
                </mxCell>
                <mxCell id="edge26" style="rounded=1;html=1;exitX=0.5;exitY=0;entryX=0.5;entryY=1;jettySize=auto;curved=0;endArrow=block;dashed=0;endFill=1;fontFamily=Lucida Console;fontSize=7;" parent="1" source="node6" target="node16" edge="1">
                    <mxGeometry relative="1" as="geometry">
                        <Array as="points">
                            <mxPoint x="1403.05" y="2209.55"/>
                            <mxPoint x="1426.61" y="2174.4000000000005"/>
                            <mxPoint x="1500.59" y="2156.4000000000005"/>
                            <mxPoint x="1599.21" y="1916.1100000000006"/>
                        </Array>
                    </mxGeometry>
                </mxCell>
                <mxCell id="edge27" style="rounded=1;html=1;exitX=0.834;exitY=0;entryX=0.281;entryY=1;jettySize=auto;curved=0;endArrow=block;dashed=0;endFill=1;fontFamily=Lucida Console;fontSize=7;" parent="1" source="node6" target="node16" edge="1">
                    <mxGeometry relative="1" as="geometry"/>
                </mxCell>
                <mxCell id="edge4" style="rounded=1;html=1;exitX=0.5;exitY=0;entryX=0.758;entryY=1;jettySize=auto;curved=0;endArrow=block;dashed=0;endFill=1;fontFamily=Lucida Console;fontSize=7;" parent="1" source="node7" target="node1" edge="1">
                    <mxGeometry relative="1" as="geometry"/>
                </mxCell>
                <mxCell id="edge5" style="rounded=1;html=1;exitX=0.5;exitY=0;entryX=0.377;entryY=1;jettySize=auto;curved=1;endArrow=block;dashed=0;endFill=1;fontFamily=Lucida Console;fontSize=7;" parent="1" source="node7" target="node8" edge="1">
                    <mxGeometry relative="1" as="geometry">
                        <Array as="points">
                            <mxPoint x="273.15" y="2528.8700000000003"/>
                            <mxPoint x="276.62" y="2174.4000000000005"/>
                            <mxPoint x="328.21" y="1899.2000000000003"/>
                        </Array>
                    </mxGeometry>
                </mxCell>
                <mxCell id="edge6" style="rounded=1;html=1;exitX=0.5;exitY=0;entryX=0.5;entryY=1;jettySize=auto;curved=0;endArrow=block;dashed=0;endFill=1;fontFamily=Lucida Console;fontSize=7;" parent="1" source="node7" target="node8" edge="1">
                    <mxGeometry relative="1" as="geometry">
                        <Array as="points">
                            <mxPoint x="284.22" y="2528.7400000000007"/>
                            <mxPoint x="346.59" y="2191.2000000000003"/>
                            <mxPoint x="366.25" y="1899.3100000000004"/>
                        </Array>
                    </mxGeometry>
                </mxCell>
                <mxCell id="edge11" style="rounded=1;html=1;exitX=0.622;exitY=0;entryX=0;entryY=0.5;jettySize=auto;curved=0;endArrow=block;dashed=0;endFill=1;fontFamily=Lucida Console;fontSize=7;" parent="1" source="node8" target="node10" edge="1">
                    <mxGeometry relative="1" as="geometry">
                        <Array as="points">
                            <mxPoint x="408.6" y="1611.0900000000001"/>
                            <mxPoint x="541.59" y="1341.8000000000002"/>
                            <mxPoint x="1234.81" y="736.4900000000002"/>
                        </Array>
                    </mxGeometry>
                </mxCell>
                <mxCell id="edge7" style="rounded=1;html=1;exitX=0.606;exitY=0;entryX=0;entryY=0.629;jettySize=auto;curved=0;endArrow=block;dashed=0;endFill=1;fontFamily=Lucida Console;fontSize=7;" parent="1" source="node9" target="node10" edge="1">
                    <mxGeometry relative="1" as="geometry">
                        <Array as="points">
                            <mxPoint x="733.82" y="1644.5000000000005"/>
                            <mxPoint x="861.59" y="1341.8000000000002"/>
                            <mxPoint x="1237.58" y="812.1600000000003"/>
                        </Array>
                    </mxGeometry>
                </mxCell>
                <mxCell id="edge8" style="rounded=1;html=1;exitX=0.5;exitY=0;entryX=0.396;entryY=1;jettySize=auto;curved=0;endArrow=block;dashed=0;endFill=1;fontFamily=Lucida Console;fontSize=7;" parent="1" source="node11" target="node9" edge="1">
                    <mxGeometry relative="1" as="geometry"/>
                </mxCell>
                <mxCell id="edge9" style="rounded=1;html=1;exitX=0.953;exitY=0;entryX=0;entryY=0.795;jettySize=auto;curved=0;endArrow=block;dashed=0;endFill=1;fontFamily=Lucida Console;fontSize=7;" parent="1" source="node12" target="node10" edge="1">
                    <mxGeometry relative="1" as="geometry">
                        <Array as="points">
                            <mxPoint x="1108.4" y="1400.9700000000003"/>
                            <mxPoint x="1128.59" y="1341.8000000000002"/>
                            <mxPoint x="1241.15" y="1024.8600000000006"/>
                        </Array>
                    </mxGeometry>
                </mxCell>
                <mxCell id="edge10" style="rounded=1;html=1;exitX=0.5;exitY=0;entryX=0.5;entryY=1;jettySize=auto;curved=0;endArrow=block;dashed=0;endFill=1;fontFamily=Lucida Console;fontSize=7;" parent="1" source="node13" target="node9" edge="1">
                    <mxGeometry relative="1" as="geometry"/>
                </mxCell>
                <mxCell id="edge12" style="rounded=1;html=1;exitX=0.5;exitY=0;entryX=0.355;entryY=1;jettySize=auto;curved=0;endArrow=block;dashed=0;endFill=1;fontFamily=Lucida Console;fontSize=7;" parent="1" source="node14" target="node10" edge="1">
                    <mxGeometry relative="1" as="geometry"/>
                </mxCell>
                <mxCell id="edge13" style="rounded=1;html=1;exitX=0.5;exitY=0;entryX=0.5;entryY=1;jettySize=auto;curved=0;endArrow=block;dashed=0;endFill=1;fontFamily=Lucida Console;fontSize=7;" parent="1" source="node14" target="node10" edge="1">
                    <mxGeometry relative="1" as="geometry">
                        <Array as="points">
                            <mxPoint x="1348.46" y="1594.2900000000004"/>
                            <mxPoint x="1389.59" y="1323.8000000000002"/>
                            <mxPoint x="1391.46" y="1300.9200000000005"/>
                        </Array>
                    </mxGeometry>
                </mxCell>
                <mxCell id="edge14" style="rounded=1;html=1;exitX=0.5;exitY=0;entryX=0.176;entryY=1;jettySize=auto;curved=0;endArrow=block;dashed=0;endFill=1;fontFamily=Lucida Console;fontSize=7;" parent="1" source="node14" target="node10" edge="1">
                    <mxGeometry relative="1" as="geometry">
                        <Array as="points">
                            <mxPoint x="1304.98" y="1593.9900000000002"/>
                            <mxPoint x="1293.27" y="1323.8000000000002"/>
                            <mxPoint x="1292.89" y="1300.9600000000005"/>
                        </Array>
                    </mxGeometry>
                </mxCell>
                <mxCell id="edge15" style="rounded=1;html=1;exitX=0.5;exitY=0;entryX=0.347;entryY=1;jettySize=auto;curved=0;endArrow=block;dashed=0;endFill=1;fontFamily=Lucida Console;fontSize=7;" parent="1" source="node15" target="node14" edge="1">
                    <mxGeometry relative="1" as="geometry">
                        <Array as="points">
                            <mxPoint x="1139.72" y="2461.59"/>
                            <mxPoint x="1189.81" y="2174.4000000000005"/>
                            <mxPoint x="1260.57" y="1915.9100000000003"/>
                        </Array>
                    </mxGeometry>
                </mxCell>
                <mxCell id="edge16" style="rounded=1;html=1;exitX=0.332;exitY=0;entryX=0.985;entryY=1;jettySize=auto;curved=0;endArrow=block;dashed=0;endFill=1;fontFamily=Lucida Console;fontSize=7;" parent="1" source="node16" target="node10" edge="1">
                    <mxGeometry relative="1" as="geometry"/>
                </mxCell>
                <mxCell id="edge17" style="rounded=1;html=1;exitX=0.364;exitY=0;entryX=1;entryY=0.725;jettySize=auto;curved=0;endArrow=block;dashed=0;endFill=1;fontFamily=Lucida Console;fontSize=7;" parent="1" source="node17" target="node10" edge="1">
                    <mxGeometry relative="1" as="geometry">
                        <Array as="points">
                            <mxPoint x="1811.93" y="1635.8700000000003"/>
                            <mxPoint x="1702.59" y="1341.8000000000002"/>
                            <mxPoint x="1521.12" y="935.7500000000005"/>
                        </Array>
                    </mxGeometry>
                </mxCell>
                <mxCell id="edge18" style="rounded=1;html=1;exitX=0;exitY=0.0205;entryX=1;entryY=0.5;jettySize=auto;curved=0;endArrow=block;dashed=0;endFill=1;fontFamily=Lucida Console;fontSize=7;" parent="1" source="node18" target="node10" edge="1">
                    <mxGeometry relative="1" as="geometry">
                        <Array as="points">
                            <mxPoint x="2005.57" y="1358.9400000000005"/>
                            <mxPoint x="1996.59" y="1341.8000000000002"/>
                            <mxPoint x="1525.02" y="773.2200000000003"/>
                        </Array>
                    </mxGeometry>
                </mxCell>
                <mxCell id="edge19" style="rounded=1;html=1;exitX=0.5;exitY=0;entryX=0.5;entryY=1;jettySize=auto;curved=0;endArrow=block;dashed=0;endFill=1;fontFamily=Lucida Console;fontSize=7;" parent="1" source="node19" target="node20" edge="1">
                    <mxGeometry relative="1" as="geometry"/>
                </mxCell>
                <mxCell id="edge21" style="rounded=1;html=1;exitX=0.5;exitY=0;entryX=0.5;entryY=1;jettySize=auto;curved=0;endArrow=block;dashed=0;endFill=1;fontFamily=Lucida Console;fontSize=7;" parent="1" source="node20" target="node21" edge="1">
                    <mxGeometry relative="1" as="geometry"/>
                </mxCell>
                <mxCell id="edge20" style="rounded=1;html=1;exitX=0.347;exitY=0;entryX=1;entryY=0.5;jettySize=auto;curved=0;endArrow=block;dashed=0;endFill=1;fontFamily=Lucida Console;fontSize=7;" parent="1" source="node21" target="node10" edge="1">
                    <mxGeometry relative="1" as="geometry">
                        <Array as="points">
                            <mxPoint x="2372.35" y="1594.0600000000004"/>
                            <mxPoint x="2224.59" y="1341.8000000000002"/>
                            <mxPoint x="1526.23" y="739.8800000000006"/>
                        </Array>
                    </mxGeometry>
                </mxCell>
                <mxCell id="edge23" style="rounded=1;html=1;exitX=0.5;exitY=0;entryX=0.699;entryY=1;jettySize=auto;curved=0;endArrow=block;dashed=0;endFill=1;fontFamily=Lucida Console;fontSize=7;" parent="1" source="node22" target="node6" edge="1">
                    <mxGeometry relative="1" as="geometry">
                        <Array as="points">
                            <mxPoint x="1491.92" y="3221.8"/>
                            <mxPoint x="1460.59" y="2975.8"/>
                            <mxPoint x="1455.1" y="2934.8"/>
                        </Array>
                    </mxGeometry>
                </mxCell>
                <mxCell id="edge24" style="rounded=1;html=1;exitX=0.955;exitY=0;entryX=0.227;entryY=1;jettySize=auto;curved=0;endArrow=block;dashed=0;endFill=1;fontFamily=Lucida Console;fontSize=7;" parent="1" source="node22" target="node23" edge="1">
                    <mxGeometry relative="1" as="geometry"/>
                </mxCell>
                <mxCell id="edge32" style="rounded=1;html=1;exitX=0.103;exitY=0;entryX=1;entryY=1;jettySize=auto;curved=0;endArrow=block;dashed=0;endFill=1;fontFamily=Lucida Console;fontSize=7;" parent="1" source="node23" target="node6" edge="1">
                    <mxGeometry relative="1" as="geometry">
                        <Array as="points">
                            <mxPoint x="1574.91" y="2984.46"/>
                            <mxPoint x="1554.59" y="2957.8"/>
                            <mxPoint x="1537.93" y="2931.3"/>
                        </Array>
                    </mxGeometry>
                </mxCell>
                <mxCell id="edge28" style="rounded=1;html=1;exitX=0.244;exitY=0;entryX=0.5;entryY=1;jettySize=auto;curved=0;endArrow=block;dashed=0;endFill=1;fontFamily=Lucida Console;fontSize=7;" parent="1" source="node23" target="node16" edge="1">
                    <mxGeometry relative="1" as="geometry">
                        <Array as="points">
                            <mxPoint x="1609.46" y="2984.3300000000004"/>
                            <mxPoint x="1582.94" y="2923.0000000000005"/>
                            <mxPoint x="1587.4" y="1916.1100000000006"/>
                        </Array>
                    </mxGeometry>
                </mxCell>
                <mxCell id="edge29" style="rounded=1;html=1;exitX=0.5;exitY=0;entryX=0.614;entryY=1;jettySize=auto;curved=1;endArrow=block;dashed=0;endFill=1;fontFamily=Lucida Console;fontSize=7;" parent="1" source="node23" target="node16" edge="1">
                    <mxGeometry relative="1" as="geometry">
                        <Array as="points">
                            <mxPoint x="1672.69" y="2984.6200000000003"/>
                            <mxPoint x="1650.59" y="2209.2000000000003"/>
                            <mxPoint x="1622.57" y="1916.0600000000004"/>
                        </Array>
                    </mxGeometry>
                </mxCell>
                <mxCell id="edge30" style="rounded=1;html=1;exitX=0.701;exitY=0;entryX=0.636;entryY=1;jettySize=auto;curved=0;endArrow=block;dashed=0;endFill=1;fontFamily=Lucida Console;fontSize=7;" parent="1" source="node23" target="node16" edge="1">
                    <mxGeometry relative="1" as="geometry">
                        <Array as="points">
                            <mxPoint x="1721.95" y="2984.6400000000003"/>
                            <mxPoint x="1743.59" y="2923.0000000000005"/>
                            <mxPoint x="1743.59" y="2209.2000000000003"/>
                            <mxPoint x="1702.59" y="2156.4000000000005"/>
                            <mxPoint x="1626.69" y="1916.4200000000005"/>
                        </Array>
                    </mxGeometry>
                </mxCell>
                <mxCell id="edge31" style="rounded=1;html=1;exitX=1;exitY=0.0335;entryX=0.5;entryY=1;jettySize=auto;curved=0;endArrow=block;dashed=0;endFill=1;fontFamily=Lucida Console;fontSize=7;" parent="1" source="node23" target="node16" edge="1">
                    <mxGeometry relative="1" as="geometry">
                        <Array as="points">
                            <mxPoint x="1795.79" y="2990.5700000000006"/>
                            <mxPoint x="1846.59" y="2923.0000000000005"/>
                            <mxPoint x="1846.59" y="2209.2000000000003"/>
                            <mxPoint x="1702.59" y="2156.4000000000005"/>
                            <mxPoint x="1607.4" y="1916.6600000000003"/>
                        </Array>
                    </mxGeometry>
                </mxCell>
                <mxCell id="edge33" style="rounded=1;html=1;exitX=0.279;exitY=0;entryX=0.931;entryY=1;jettySize=auto;curved=0;endArrow=block;dashed=0;endFill=1;fontFamily=Lucida Console;fontSize=7;" parent="1" source="node24" target="node3" edge="1">
                    <mxGeometry relative="1" as="geometry">
                        <Array as="points">
                            <mxPoint x="1649.06" y="4049.6100000000006"/>
                            <mxPoint x="1593.59" y="3881.2000000000003"/>
                            <mxPoint x="1578.43" y="3839.3"/>
                        </Array>
                    </mxGeometry>
                </mxCell>
                <mxCell id="node1" value="&lt;p style=&quot;margin: 4px 0px 0px; text-align: center; font-size: 7px; color: rgb(0, 0, 0);&quot;&gt;_ctypes._SimpleCData&lt;/p&gt;&lt;hr style=&quot;font-size: 7px;&quot;&gt;&lt;p style=&quot;margin: 0px 0px 0px 4px; text-align: start; font-size: 7px; color: rgb(0, 0, 0);&quot;&gt;__bool__()&lt;br style=&quot;font-size: 7px;&quot;&gt;__ctypes_from_outparam__()&lt;br style=&quot;font-size: 7px;&quot;&gt;__delattr__()&lt;br style=&quot;font-size: 7px;&quot;&gt;__dir__()&lt;br style=&quot;font-size: 7px;&quot;&gt;__eq__()&lt;br style=&quot;font-size: 7px;&quot;&gt;__format__()&lt;br style=&quot;font-size: 7px;&quot;&gt;__ge__()&lt;br style=&quot;font-size: 7px;&quot;&gt;__getattribute__()&lt;br style=&quot;font-size: 7px;&quot;&gt;__gt__()&lt;br style=&quot;font-size: 7px;&quot;&gt;__hash__()&lt;br style=&quot;font-size: 7px;&quot;&gt;__init__()&lt;br style=&quot;font-size: 7px;&quot;&gt;__le__()&lt;br style=&quot;font-size: 7px;&quot;&gt;__lt__()&lt;br style=&quot;font-size: 7px;&quot;&gt;__ne__()&lt;br style=&quot;font-size: 7px;&quot;&gt;__reduce__()&lt;br style=&quot;font-size: 7px;&quot;&gt;__reduce_ex__()&lt;br style=&quot;font-size: 7px;&quot;&gt;__repr__()&lt;br style=&quot;font-size: 7px;&quot;&gt;__setattr__()&lt;br style=&quot;font-size: 7px;&quot;&gt;__setstate__()&lt;br style=&quot;font-size: 7px;&quot;&gt;__sizeof__()&lt;br style=&quot;font-size: 7px;&quot;&gt;__str__()&lt;/p&gt;" style="verticalAlign=top;align=left;overflow=fill;html=1;rounded=0;shadow=0;comic=0;labelBackgroundColor=none;strokeColor=black;strokeWidth=1;fillColor=#ffffff;fontFamily=Lucida Console;fontSize=7;" parent="1" vertex="1">
                    <mxGeometry x="4" y="1544.3000000000002" width="183.17" height="409.60000000000036" as="geometry"/>
                </mxCell>
                <mxCell id="node2" value="&lt;p style=&quot;margin: 4px 0px 0px; text-align: center; font-size: 7px; color: rgb(0, 0, 0);&quot;&gt;_thread.RLock&lt;/p&gt;&lt;hr style=&quot;font-size: 7px;&quot;&gt;&lt;p style=&quot;margin: 0px 0px 0px 4px; text-align: start; font-size: 7px; color: rgb(0, 0, 0);&quot;&gt;__delattr__()&lt;br style=&quot;font-size: 7px;&quot;&gt;__dir__()&lt;br style=&quot;font-size: 7px;&quot;&gt;__enter__()&lt;br style=&quot;font-size: 7px;&quot;&gt;__eq__()&lt;br style=&quot;font-size: 7px;&quot;&gt;__exit__()&lt;br style=&quot;font-size: 7px;&quot;&gt;__format__()&lt;br style=&quot;font-size: 7px;&quot;&gt;__ge__()&lt;br style=&quot;font-size: 7px;&quot;&gt;__getattribute__()&lt;br style=&quot;font-size: 7px;&quot;&gt;__gt__()&lt;br style=&quot;font-size: 7px;&quot;&gt;__hash__()&lt;br style=&quot;font-size: 7px;&quot;&gt;__init__()&lt;br style=&quot;font-size: 7px;&quot;&gt;__le__()&lt;br style=&quot;font-size: 7px;&quot;&gt;__lt__()&lt;br style=&quot;font-size: 7px;&quot;&gt;__ne__()&lt;br style=&quot;font-size: 7px;&quot;&gt;__reduce__()&lt;br style=&quot;font-size: 7px;&quot;&gt;__reduce_ex__()&lt;br style=&quot;font-size: 7px;&quot;&gt;__repr__()&lt;br style=&quot;font-size: 7px;&quot;&gt;__setattr__()&lt;br style=&quot;font-size: 7px;&quot;&gt;__sizeof__()&lt;br style=&quot;font-size: 7px;&quot;&gt;__str__()&lt;br style=&quot;font-size: 7px;&quot;&gt;_acquire_restore()&lt;br style=&quot;font-size: 7px;&quot;&gt;_is_owned()&lt;br style=&quot;font-size: 7px;&quot;&gt;_release_save()&lt;br style=&quot;font-size: 7px;&quot;&gt;acquire()&lt;br style=&quot;font-size: 7px;&quot;&gt;release()&lt;/p&gt;" style="verticalAlign=top;align=left;overflow=fill;html=1;rounded=0;shadow=0;comic=0;labelBackgroundColor=none;strokeColor=black;strokeWidth=1;fillColor=#ffffff;fontFamily=Lucida Console;fontSize=7;" parent="1" vertex="1">
                    <mxGeometry x="1286.28" y="3932.5000000000005" width="118.61000000000013" height="476.7999999999997" as="geometry"/>
                </mxCell>
                <mxCell id="node3" value="&lt;p style=&quot;margin: 4px 0px 0px; text-align: center; font-size: 7px; color: rgb(0, 0, 0);&quot;&gt;threading.Condition&lt;/p&gt;&lt;hr style=&quot;font-size: 7px;&quot;&gt;&lt;p style=&quot;margin: 0px 0px 0px 4px; text-align: start; font-size: 7px; color: rgb(0, 0, 0);&quot;&gt;_acquire_restore&lt;br style=&quot;font-size: 7px;&quot;&gt;_is_owned&lt;br style=&quot;font-size: 7px;&quot;&gt;_lock : NoneType&lt;br style=&quot;font-size: 7px;&quot;&gt;_release_save&lt;br style=&quot;font-size: 7px;&quot;&gt;_waiters&lt;br style=&quot;font-size: 7px;&quot;&gt;acquire&lt;br style=&quot;font-size: 7px;&quot;&gt;notifyAll&lt;br style=&quot;font-size: 7px;&quot;&gt;release&lt;/p&gt;&lt;hr style=&quot;font-size: 7px;&quot;&gt;&lt;p style=&quot;margin: 0px 0px 0px 4px; text-align: start; font-size: 7px; color: rgb(0, 0, 0);&quot;&gt;__enter__()&lt;br style=&quot;font-size: 7px;&quot;&gt;__exit__()&lt;br style=&quot;font-size: 7px;&quot;&gt;__init__(lock)&lt;br style=&quot;font-size: 7px;&quot;&gt;__repr__()&lt;br style=&quot;font-size: 7px;&quot;&gt;_acquire_restore(x)&lt;br style=&quot;font-size: 7px;&quot;&gt;_is_owned()&lt;br style=&quot;font-size: 7px;&quot;&gt;_release_save()&lt;br style=&quot;font-size: 7px;&quot;&gt;notify(n)&lt;br style=&quot;font-size: 7px;&quot;&gt;notify_all()&lt;br style=&quot;font-size: 7px;&quot;&gt;wait(timeout)&lt;br style=&quot;font-size: 7px;&quot;&gt;wait_for(predicate, timeout)&lt;/p&gt;" style="verticalAlign=top;align=left;overflow=fill;html=1;rounded=0;shadow=0;comic=0;labelBackgroundColor=none;strokeColor=black;strokeWidth=1;fillColor=#ffffff;fontFamily=Lucida Console;fontSize=7;" parent="1" vertex="1">
                    <mxGeometry x="1416.68" y="3467.9000000000005" width="173.81999999999994" height="360" as="geometry"/>
                </mxCell>
                <mxCell id="node22" value="&lt;p style=&quot;margin: 4px 0px 0px; text-align: center; font-size: 7px; color: rgb(0, 0, 0);&quot;&gt;threading.Event&lt;/p&gt;&lt;hr style=&quot;font-size: 7px;&quot;&gt;&lt;p style=&quot;margin: 0px 0px 0px 4px; text-align: start; font-size: 7px; color: rgb(0, 0, 0);&quot;&gt;_cond&lt;br style=&quot;font-size: 7px;&quot;&gt;_flag : bool&lt;br style=&quot;font-size: 7px;&quot;&gt;isSet&lt;/p&gt;&lt;hr style=&quot;font-size: 7px;&quot;&gt;&lt;p style=&quot;margin: 0px 0px 0px 4px; text-align: start; font-size: 7px; color: rgb(0, 0, 0);&quot;&gt;__init__()&lt;br style=&quot;font-size: 7px;&quot;&gt;_reset_internal_locks()&lt;br style=&quot;font-size: 7px;&quot;&gt;clear()&lt;br style=&quot;font-size: 7px;&quot;&gt;is_set()&lt;br style=&quot;font-size: 7px;&quot;&gt;set()&lt;br style=&quot;font-size: 7px;&quot;&gt;wait(timeout)&lt;/p&gt;" style="verticalAlign=top;align=left;overflow=fill;html=1;rounded=0;shadow=0;comic=0;labelBackgroundColor=none;strokeColor=black;strokeWidth=1;fillColor=#ffffff;fontFamily=Lucida Console;fontSize=7;" parent="1" vertex="1">
                    <mxGeometry x="1431.06" y="3222.1000000000004" width="145.05999999999995" height="192" as="geometry"/>
                </mxCell>
                <mxCell id="node4" value="&lt;p style=&quot;margin: 4px 0px 0px; text-align: center; font-size: 7px; color: rgb(0, 0, 0);&quot;&gt;collections.deque&lt;/p&gt;&lt;hr style=&quot;font-size: 7px;&quot;&gt;&lt;p style=&quot;margin: 0px 0px 0px 4px; text-align: start; font-size: 7px; color: rgb(0, 0, 0);&quot;&gt;iterable : list&lt;br style=&quot;font-size: 7px;&quot;&gt;maxlen : int&lt;/p&gt;&lt;hr style=&quot;font-size: 7px;&quot;&gt;&lt;p style=&quot;margin: 0px 0px 0px 4px; text-align: start; font-size: 7px; color: rgb(0, 0, 0);&quot;&gt;__add__(other)&lt;br style=&quot;font-size: 7px;&quot;&gt;__bool__()&lt;br style=&quot;font-size: 7px;&quot;&gt;__contains__(o)&lt;br style=&quot;font-size: 7px;&quot;&gt;__copy__()&lt;br style=&quot;font-size: 7px;&quot;&gt;__delitem__(index)&lt;br style=&quot;font-size: 7px;&quot;&gt;__getitem__(index)&lt;br style=&quot;font-size: 7px;&quot;&gt;__iadd__(other)&lt;br style=&quot;font-size: 7px;&quot;&gt;__imul__(other)&lt;br style=&quot;font-size: 7px;&quot;&gt;__init__(iterable, maxlen)&lt;br style=&quot;font-size: 7px;&quot;&gt;__iter__()&lt;br style=&quot;font-size: 7px;&quot;&gt;__len__()&lt;br style=&quot;font-size: 7px;&quot;&gt;__mul__(other)&lt;br style=&quot;font-size: 7px;&quot;&gt;__nonzero__()&lt;br style=&quot;font-size: 7px;&quot;&gt;__reversed__()&lt;br style=&quot;font-size: 7px;&quot;&gt;__rmul__(other)&lt;br style=&quot;font-size: 7px;&quot;&gt;__setitem__(index, value)&lt;br style=&quot;font-size: 7px;&quot;&gt;append(x)&lt;br style=&quot;font-size: 7px;&quot;&gt;appendleft(x)&lt;br style=&quot;font-size: 7px;&quot;&gt;clear()&lt;br style=&quot;font-size: 7px;&quot;&gt;copy()&lt;br style=&quot;font-size: 7px;&quot;&gt;count(x)&lt;br style=&quot;font-size: 7px;&quot;&gt;extend(iterable)&lt;br style=&quot;font-size: 7px;&quot;&gt;extendleft(iterable)&lt;br style=&quot;font-size: 7px;&quot;&gt;index(x, start, end)&lt;br style=&quot;font-size: 7px;&quot;&gt;insert(x, i)&lt;br style=&quot;font-size: 7px;&quot;&gt;pop()&lt;br style=&quot;font-size: 7px;&quot;&gt;popleft()&lt;br style=&quot;font-size: 7px;&quot;&gt;remove(value)&lt;br style=&quot;font-size: 7px;&quot;&gt;reverse()&lt;br style=&quot;font-size: 7px;&quot;&gt;rotate(n)&lt;/p&gt;" style="verticalAlign=top;align=left;overflow=fill;html=1;rounded=0;shadow=0;comic=0;labelBackgroundColor=none;strokeColor=black;strokeWidth=1;fillColor=#ffffff;fontFamily=Lucida Console;fontSize=7;" parent="1" vertex="1">
                    <mxGeometry x="1422.5" y="3881.7000000000003" width="162.18000000000006" height="578.4000000000001" as="geometry"/>
                </mxCell>
                <mxCell id="node5" value="&lt;p style=&quot;margin: 4px 0px 0px; text-align: center; font-size: 7px; color: rgb(0, 0, 0);&quot;&gt;colorama.ansitowin32.StreamWrapper&lt;/p&gt;&lt;hr style=&quot;font-size: 7px;&quot;&gt;&lt;p style=&quot;margin: 0px 0px 0px 4px; text-align: start; font-size: 7px; color: rgb(0, 0, 0);&quot;&gt;__convertor&lt;br style=&quot;font-size: 7px;&quot;&gt;__wrapped&lt;br style=&quot;font-size: 7px;&quot;&gt;closed&lt;/p&gt;&lt;hr style=&quot;font-size: 7px;&quot;&gt;&lt;p style=&quot;margin: 0px 0px 0px 4px; text-align: start; font-size: 7px; color: rgb(0, 0, 0);&quot;&gt;__enter__()&lt;br style=&quot;font-size: 7px;&quot;&gt;__exit__()&lt;br style=&quot;font-size: 7px;&quot;&gt;__getattr__(name)&lt;br style=&quot;font-size: 7px;&quot;&gt;__init__(wrapped, converter)&lt;br style=&quot;font-size: 7px;&quot;&gt;isatty()&lt;br style=&quot;font-size: 7px;&quot;&gt;write(text)&lt;/p&gt;" style="verticalAlign=top;align=left;overflow=fill;html=1;rounded=0;shadow=0;comic=0;labelBackgroundColor=none;strokeColor=black;strokeWidth=1;fillColor=#ffffff;fontFamily=Lucida Console;fontSize=7;" parent="1" vertex="1">
                    <mxGeometry x="1219.51" y="2976.3" width="232.1500000000001" height="192" as="geometry"/>
                </mxCell>
                <mxCell id="node6" value="&lt;p style=&quot;margin: 4px 0px 0px; text-align: center; font-size: 7px; color: rgb(0, 0, 0);&quot;&gt;threading.Thread&lt;/p&gt;&lt;hr style=&quot;font-size: 7px;&quot;&gt;&lt;p style=&quot;margin: 0px 0px 0px 4px; text-align: start; font-size: 7px; color: rgb(0, 0, 0);&quot;&gt;_args : tuple&lt;br style=&quot;font-size: 7px;&quot;&gt;_daemonic : NoneType&lt;br style=&quot;font-size: 7px;&quot;&gt;_ident : NoneType&lt;br style=&quot;font-size: 7px;&quot;&gt;_initialized : bool&lt;br style=&quot;font-size: 7px;&quot;&gt;_initialized : bool&lt;br style=&quot;font-size: 7px;&quot;&gt;_invoke_excepthook&lt;br style=&quot;font-size: 7px;&quot;&gt;_is_stopped : bool&lt;br style=&quot;font-size: 7px;&quot;&gt;_kwargs : NoneType, dict&lt;br style=&quot;font-size: 7px;&quot;&gt;_name : str&lt;br style=&quot;font-size: 7px;&quot;&gt;_native_id : NoneType&lt;br style=&quot;font-size: 7px;&quot;&gt;_started&lt;br style=&quot;font-size: 7px;&quot;&gt;_stderr&lt;br style=&quot;font-size: 7px;&quot;&gt;_target : NoneType&lt;br style=&quot;font-size: 7px;&quot;&gt;_tstate_lock : NoneType&lt;br style=&quot;font-size: 7px;&quot;&gt;daemon&lt;br style=&quot;font-size: 7px;&quot;&gt;daemon&lt;br style=&quot;font-size: 7px;&quot;&gt;ident&lt;br style=&quot;font-size: 7px;&quot;&gt;name&lt;br style=&quot;font-size: 7px;&quot;&gt;name&lt;br style=&quot;font-size: 7px;&quot;&gt;native_id&lt;/p&gt;&lt;hr style=&quot;font-size: 7px;&quot;&gt;&lt;p style=&quot;margin: 0px 0px 0px 4px; text-align: start; font-size: 7px; color: rgb(0, 0, 0);&quot;&gt;__init__(group, target, name, args, kwargs)&lt;br style=&quot;font-size: 7px;&quot;&gt;__repr__()&lt;br style=&quot;font-size: 7px;&quot;&gt;_bootstrap()&lt;br style=&quot;font-size: 7px;&quot;&gt;_bootstrap_inner()&lt;br style=&quot;font-size: 7px;&quot;&gt;_delete()&lt;br style=&quot;font-size: 7px;&quot;&gt;_reset_internal_locks(is_alive)&lt;br style=&quot;font-size: 7px;&quot;&gt;_set_ident()&lt;br style=&quot;font-size: 7px;&quot;&gt;_set_native_id()&lt;br style=&quot;font-size: 7px;&quot;&gt;_set_tstate_lock()&lt;br style=&quot;font-size: 7px;&quot;&gt;_stop()&lt;br style=&quot;font-size: 7px;&quot;&gt;_wait_for_tstate_lock(block, timeout)&lt;br style=&quot;font-size: 7px;&quot;&gt;getName()&lt;br style=&quot;font-size: 7px;&quot;&gt;isAlive()&lt;br style=&quot;font-size: 7px;&quot;&gt;isDaemon()&lt;br style=&quot;font-size: 7px;&quot;&gt;is_alive()&lt;br style=&quot;font-size: 7px;&quot;&gt;join(timeout)&lt;br style=&quot;font-size: 7px;&quot;&gt;run()&lt;br style=&quot;font-size: 7px;&quot;&gt;setDaemon(daemonic)&lt;br style=&quot;font-size: 7px;&quot;&gt;setName(name)&lt;br style=&quot;font-size: 7px;&quot;&gt;start()&lt;/p&gt;" style="verticalAlign=top;align=left;overflow=fill;html=1;rounded=0;shadow=0;comic=0;labelBackgroundColor=none;strokeColor=black;strokeWidth=1;fillColor=#ffffff;fontFamily=Lucida Console;fontSize=7;" parent="1" vertex="1">
                    <mxGeometry x="1274.29" y="2209.7000000000003" width="258.60000000000014" height="712.8000000000002" as="geometry"/>
                </mxCell>
                <mxCell id="node8" value="&lt;p style=&quot;margin: 4px 0px 0px; text-align: center; font-size: 7px; color: rgb(0, 0, 0);&quot;&gt;gremlin.process_monitor.ProcessMonitor&lt;/p&gt;&lt;hr style=&quot;font-size: 7px;&quot;&gt;&lt;p style=&quot;margin: 0px 0px 0px 4px; text-align: start; font-size: 7px; color: rgb(0, 0, 0);&quot;&gt;PROCESS_QUERY_LIMITED_INFORMATION : int&lt;br style=&quot;font-size: 7px;&quot;&gt;_buffer&lt;br style=&quot;font-size: 7px;&quot;&gt;_buffer_size&lt;br style=&quot;font-size: 7px;&quot;&gt;_current_path : bytes, str&lt;br style=&quot;font-size: 7px;&quot;&gt;_current_pid : int&lt;br style=&quot;font-size: 7px;&quot;&gt;_update_thread : NoneType&lt;br style=&quot;font-size: 7px;&quot;&gt;current_path&lt;br style=&quot;font-size: 7px;&quot;&gt;kernel32&lt;br style=&quot;font-size: 7px;&quot;&gt;process_changed&lt;br style=&quot;font-size: 7px;&quot;&gt;running : bool&lt;/p&gt;&lt;hr style=&quot;font-size: 7px;&quot;&gt;&lt;p style=&quot;margin: 0px 0px 0px 4px; text-align: start; font-size: 7px; color: rgb(0, 0, 0);&quot;&gt;__init__()&lt;br style=&quot;font-size: 7px;&quot;&gt;_update()&lt;br style=&quot;font-size: 7px;&quot;&gt;start()&lt;br style=&quot;font-size: 7px;&quot;&gt;stop()&lt;/p&gt;" style="verticalAlign=top;align=left;overflow=fill;html=1;rounded=0;shadow=0;comic=0;labelBackgroundColor=none;strokeColor=black;strokeWidth=1;fillColor=#ffffff;fontFamily=Lucida Console;fontSize=7;" parent="1" vertex="1">
                    <mxGeometry x="205.02" y="1611.1000000000004" width="327.13" height="276" as="geometry"/>
                </mxCell>
                <mxCell id="node16" value="&lt;p style=&quot;margin: 4px 0px 0px; text-align: center; font-size: 7px; color: rgb(0, 0, 0);&quot;&gt;gremlin.repeater.Repeater&lt;/p&gt;&lt;hr style=&quot;font-size: 7px;&quot;&gt;&lt;p style=&quot;margin: 0px 0px 0px 4px; text-align: start; font-size: 7px; color: rgb(0, 0, 0);&quot;&gt;_event_registry : dict&lt;br style=&quot;font-size: 7px;&quot;&gt;_events&lt;br style=&quot;font-size: 7px;&quot;&gt;_start_timer&lt;br style=&quot;font-size: 7px;&quot;&gt;_stop_timer&lt;br style=&quot;font-size: 7px;&quot;&gt;_thread&lt;br style=&quot;font-size: 7px;&quot;&gt;_timeout&lt;br style=&quot;font-size: 7px;&quot;&gt;_update_func&lt;br style=&quot;font-size: 7px;&quot;&gt;_vjoy_device_guids&lt;br style=&quot;font-size: 7px;&quot;&gt;events&lt;br style=&quot;font-size: 7px;&quot;&gt;events : list&lt;br style=&quot;font-size: 7px;&quot;&gt;is_running : bool&lt;/p&gt;&lt;hr style=&quot;font-size: 7px;&quot;&gt;&lt;p style=&quot;margin: 0px 0px 0px 4px; text-align: start; font-size: 7px; color: rgb(0, 0, 0);&quot;&gt;__init__(events, update_func)&lt;br style=&quot;font-size: 7px;&quot;&gt;emit_events()&lt;br style=&quot;font-size: 7px;&quot;&gt;process_event(event)&lt;br style=&quot;font-size: 7px;&quot;&gt;run()&lt;br style=&quot;font-size: 7px;&quot;&gt;stop()&lt;/p&gt;" style="verticalAlign=top;align=left;overflow=fill;html=1;rounded=0;shadow=0;comic=0;labelBackgroundColor=none;strokeColor=black;strokeWidth=1;fillColor=#ffffff;fontFamily=Lucida Console;fontSize=7;" parent="1" vertex="1">
                    <mxGeometry x="1509.61" y="1594.3000000000002" width="183.95000000000005" height="309.60000000000036" as="geometry"/>
                </mxCell>
                <mxCell id="node7" value="&lt;p style=&quot;margin: 4px 0px 0px; text-align: center; font-size: 7px; color: rgb(0, 0, 0);&quot;&gt;ctypes.c_ulong&lt;/p&gt;&lt;hr style=&quot;font-size: 7px;&quot;&gt;&lt;p style=&quot;margin: 0px 0px 0px 4px; text-align: start; font-size: 7px; color: rgb(0, 0, 0);&quot;&gt;_type_ : str&lt;/p&gt;&lt;hr style=&quot;font-size: 7px;&quot;&gt;&lt;p style=&quot;margin: 4px 0px 0px; text-align: center; font-size: 7px; color: rgb(0, 0, 0);&quot;&gt; &lt;/p&gt;" style="verticalAlign=top;align=left;overflow=fill;html=1;rounded=0;shadow=0;comic=0;labelBackgroundColor=none;strokeColor=black;strokeWidth=1;fillColor=#ffffff;fontFamily=Lucida Console;fontSize=7;" parent="1" vertex="1">
                    <mxGeometry x="225.4" y="2528.9000000000005" width="100.36999999999998" height="74.39999999999964" as="geometry"/>
                </mxCell>
                <mxCell id="node10" value="&lt;p style=&quot;margin: 4px 0px 0px; text-align: center; font-size: 7px; color: rgb(0, 0, 0);&quot;&gt;joystick_gremlin.GremlinUi&lt;/p&gt;&lt;hr style=&quot;font-size: 7px;&quot;&gt;&lt;p style=&quot;margin: 0px 0px 0px 4px; text-align: start; font-size: 7px; color: rgb(0, 0, 0);&quot;&gt;_base_path : list&lt;br style=&quot;font-size: 7px;&quot;&gt;_current_mode : str, NoneType&lt;br style=&quot;font-size: 7px;&quot;&gt;_event_process_registry : dict&lt;br style=&quot;font-size: 7px;&quot;&gt;_last_input_event : NoneType&lt;br style=&quot;font-size: 7px;&quot;&gt;_last_input_timestamp&lt;br style=&quot;font-size: 7px;&quot;&gt;_profile&lt;br style=&quot;font-size: 7px;&quot;&gt;_profile_auto_activated : bool&lt;br style=&quot;font-size: 7px;&quot;&gt;_profile_fname : NoneType&lt;br style=&quot;font-size: 7px;&quot;&gt;_resize_count : int&lt;br style=&quot;font-size: 7px;&quot;&gt;config&lt;br style=&quot;font-size: 7px;&quot;&gt;devices : list&lt;br style=&quot;font-size: 7px;&quot;&gt;mm&lt;br style=&quot;font-size: 7px;&quot;&gt;modal_windows : dict&lt;br style=&quot;font-size: 7px;&quot;&gt;mode_selector&lt;br style=&quot;font-size: 7px;&quot;&gt;process_monitor&lt;br style=&quot;font-size: 7px;&quot;&gt;repeater&lt;br style=&quot;font-size: 7px;&quot;&gt;runner&lt;br style=&quot;font-size: 7px;&quot;&gt;status_bar_is_active&lt;br style=&quot;font-size: 7px;&quot;&gt;status_bar_mode&lt;br style=&quot;font-size: 7px;&quot;&gt;status_bar_repeater&lt;br style=&quot;font-size: 7px;&quot;&gt;tabs : dict&lt;br style=&quot;font-size: 7px;&quot;&gt;ui&lt;/p&gt;&lt;hr style=&quot;font-size: 7px;&quot;&gt;&lt;p style=&quot;margin: 0px 0px 0px 4px; text-align: start; font-size: 7px; color: rgb(0, 0, 0);&quot;&gt;__init__(parent)&lt;br style=&quot;font-size: 7px;&quot;&gt;_connect_actions()&lt;br style=&quot;font-size: 7px;&quot;&gt;_create_cheatsheet()&lt;br style=&quot;font-size: 7px;&quot;&gt;_create_load_profile_function(fname)&lt;br style=&quot;font-size: 7px;&quot;&gt;_create_recent_profiles()&lt;br style=&quot;font-size: 7px;&quot;&gt;_create_statusbar()&lt;br style=&quot;font-size: 7px;&quot;&gt;_create_system_tray()&lt;br style=&quot;font-size: 7px;&quot;&gt;_create_tabs(activate_tab)&lt;br style=&quot;font-size: 7px;&quot;&gt;_device_change_cb()&lt;br style=&quot;font-size: 7px;&quot;&gt;_do_load_profile(fname)&lt;br style=&quot;font-size: 7px;&quot;&gt;_force_close()&lt;br style=&quot;font-size: 7px;&quot;&gt;_get_device_profile(device)&lt;br style=&quot;font-size: 7px;&quot;&gt;_has_profile_changed()&lt;br style=&quot;font-size: 7px;&quot;&gt;_joystick_input_selection(event)&lt;br style=&quot;font-size: 7px;&quot;&gt;_last_active_mode()&lt;br style=&quot;font-size: 7px;&quot;&gt;_load_recent_profile(fname)&lt;br style=&quot;font-size: 7px;&quot;&gt;_mode_changed_cb(new_mode)&lt;br style=&quot;font-size: 7px;&quot;&gt;_mode_configuration_changed()&lt;br style=&quot;font-size: 7px;&quot;&gt;_process_changed_cb(path)&lt;br style=&quot;font-size: 7px;&quot;&gt;_remove_modal_window(name)&lt;br style=&quot;font-size: 7px;&quot;&gt;_sanitize_profile(profile_data)&lt;br style=&quot;font-size: 7px;&quot;&gt;_save_changes_request()&lt;br style=&quot;font-size: 7px;&quot;&gt;_set_joystick_input_highlighting(is_enabled)&lt;br style=&quot;font-size: 7px;&quot;&gt;_setup_icons()&lt;br style=&quot;font-size: 7px;&quot;&gt;_should_process_input(event)&lt;br style=&quot;font-size: 7px;&quot;&gt;_tray_icon_activated_cb(reason)&lt;br style=&quot;font-size: 7px;&quot;&gt;_update_statusbar_active(is_active)&lt;br style=&quot;font-size: 7px;&quot;&gt;_update_statusbar_mode(mode)&lt;br style=&quot;font-size: 7px;&quot;&gt;_update_statusbar_repeater(text)&lt;br style=&quot;font-size: 7px;&quot;&gt;_update_window_title()&lt;br style=&quot;font-size: 7px;&quot;&gt;about()&lt;br style=&quot;font-size: 7px;&quot;&gt;activate(checked)&lt;br style=&quot;font-size: 7px;&quot;&gt;apply_user_settings(ignore_minimize)&lt;br style=&quot;font-size: 7px;&quot;&gt;apply_window_settings()&lt;br style=&quot;font-size: 7px;&quot;&gt;calibration()&lt;br style=&quot;font-size: 7px;&quot;&gt;closeEvent(evt)&lt;br style=&quot;font-size: 7px;&quot;&gt;create_1to1_mapping()&lt;br style=&quot;font-size: 7px;&quot;&gt;device_information()&lt;br style=&quot;font-size: 7px;&quot;&gt;input_repeater()&lt;br style=&quot;font-size: 7px;&quot;&gt;input_viewer()&lt;br style=&quot;font-size: 7px;&quot;&gt;load_profile()&lt;br style=&quot;font-size: 7px;&quot;&gt;log_window()&lt;br style=&quot;font-size: 7px;&quot;&gt;manage_modes()&lt;br style=&quot;font-size: 7px;&quot;&gt;merge_axis()&lt;br style=&quot;font-size: 7px;&quot;&gt;moveEvent(evt)&lt;br style=&quot;font-size: 7px;&quot;&gt;new_profile()&lt;br style=&quot;font-size: 7px;&quot;&gt;options_dialog()&lt;br style=&quot;font-size: 7px;&quot;&gt;profile_creator()&lt;br style=&quot;font-size: 7px;&quot;&gt;resizeEvent(evt)&lt;br style=&quot;font-size: 7px;&quot;&gt;save_profile()&lt;br style=&quot;font-size: 7px;&quot;&gt;save_profile_as()&lt;br style=&quot;font-size: 7px;&quot;&gt;swap_devices()&lt;/p&gt;" style="verticalAlign=top;align=left;overflow=fill;html=1;rounded=0;shadow=0;comic=0;labelBackgroundColor=none;strokeColor=black;strokeWidth=1;fillColor=#ffffff;fontFamily=Lucida Console;fontSize=7;" parent="1" vertex="1">
                    <mxGeometry x="1245.43" y="4.5" width="270.30999999999995" height="1284.0000000000005" as="geometry"/>
                </mxCell>
                <mxCell id="node9" value="&lt;p style=&quot;margin: 4px 0px 0px; text-align: center; font-size: 7px; color: rgb(0, 0, 0);&quot;&gt;gremlin.code_runner.CodeRunner&lt;/p&gt;&lt;hr style=&quot;font-size: 7px;&quot;&gt;&lt;p style=&quot;margin: 0px 0px 0px 4px; text-align: start; font-size: 7px; color: rgb(0, 0, 0);&quot;&gt;_inheritance_tree : NoneType&lt;br style=&quot;font-size: 7px;&quot;&gt;_merge_axes : list&lt;br style=&quot;font-size: 7px;&quot;&gt;_running : bool&lt;br style=&quot;font-size: 7px;&quot;&gt;_vjoy_curves&lt;br style=&quot;font-size: 7px;&quot;&gt;event_handler&lt;/p&gt;&lt;hr style=&quot;font-size: 7px;&quot;&gt;&lt;p style=&quot;margin: 0px 0px 0px 4px; text-align: start; font-size: 7px; color: rgb(0, 0, 0);&quot;&gt;__init__()&lt;br style=&quot;font-size: 7px;&quot;&gt;_reset_state()&lt;br style=&quot;font-size: 7px;&quot;&gt;is_running()&lt;br style=&quot;font-size: 7px;&quot;&gt;start(inheritance_tree, settings, start_mode, profile)&lt;br style=&quot;font-size: 7px;&quot;&gt;stop()&lt;/p&gt;" style="verticalAlign=top;align=left;overflow=fill;html=1;rounded=0;shadow=0;comic=0;labelBackgroundColor=none;strokeColor=black;strokeWidth=1;fillColor=#ffffff;fontFamily=Lucida Console;fontSize=7;" parent="1" vertex="1">
                    <mxGeometry x="550.14" y="1644.7000000000003" width="302.9" height="208.80000000000018" as="geometry"/>
                </mxCell>
                <mxCell id="node11" value="&lt;p style=&quot;margin: 4px 0px 0px; text-align: center; font-size: 7px; color: rgb(0, 0, 0);&quot;&gt;gremlin.code_runner.VJoyCurves&lt;/p&gt;&lt;hr style=&quot;font-size: 7px;&quot;&gt;&lt;p style=&quot;margin: 0px 0px 0px 4px; text-align: start; font-size: 7px; color: rgb(0, 0, 0);&quot;&gt;profile_data : NoneType&lt;/p&gt;&lt;hr style=&quot;font-size: 7px;&quot;&gt;&lt;p style=&quot;margin: 0px 0px 0px 4px; text-align: start; font-size: 7px; color: rgb(0, 0, 0);&quot;&gt;__init__()&lt;br style=&quot;font-size: 7px;&quot;&gt;mode_changed(mode_name)&lt;/p&gt;" style="verticalAlign=top;align=left;overflow=fill;html=1;rounded=0;shadow=0;comic=0;labelBackgroundColor=none;strokeColor=black;strokeWidth=1;fillColor=#ffffff;fontFamily=Lucida Console;fontSize=7;" parent="1" vertex="1">
                    <mxGeometry x="375.72" y="2520.5000000000005" width="205.73000000000002" height="91.19999999999982" as="geometry"/>
                </mxCell>
                <mxCell id="node12" value="&lt;p style=&quot;margin: 4px 0px 0px; text-align: center; font-size: 7px; color: rgb(0, 0, 0);&quot;&gt;gremlin.config.Configuration&lt;/p&gt;&lt;hr style=&quot;font-size: 7px;&quot;&gt;&lt;p style=&quot;margin: 0px 0px 0px 4px; text-align: start; font-size: 7px; color: rgb(0, 0, 0);&quot;&gt;_data : dict&lt;br style=&quot;font-size: 7px;&quot;&gt;_last_reload : NoneType&lt;br style=&quot;font-size: 7px;&quot;&gt;activate_on_launch&lt;br style=&quot;font-size: 7px;&quot;&gt;autoload_profiles&lt;br style=&quot;font-size: 7px;&quot;&gt;close_to_tray&lt;br style=&quot;font-size: 7px;&quot;&gt;default_action&lt;br style=&quot;font-size: 7px;&quot;&gt;highlight_device&lt;br style=&quot;font-size: 7px;&quot;&gt;highlight_input&lt;br style=&quot;font-size: 7px;&quot;&gt;keep_last_autoload&lt;br style=&quot;font-size: 7px;&quot;&gt;last_profile&lt;br style=&quot;font-size: 7px;&quot;&gt;last_profile : NoneType&lt;br style=&quot;font-size: 7px;&quot;&gt;macro_axis_minimum_change_rate&lt;br style=&quot;font-size: 7px;&quot;&gt;macro_axis_polling_rate&lt;br style=&quot;font-size: 7px;&quot;&gt;macro_record_axis&lt;br style=&quot;font-size: 7px;&quot;&gt;macro_record_button&lt;br style=&quot;font-size: 7px;&quot;&gt;macro_record_hat&lt;br style=&quot;font-size: 7px;&quot;&gt;macro_record_keyboard&lt;br style=&quot;font-size: 7px;&quot;&gt;macro_record_mouse&lt;br style=&quot;font-size: 7px;&quot;&gt;mode_change_message&lt;br style=&quot;font-size: 7px;&quot;&gt;recent_profiles&lt;br style=&quot;font-size: 7px;&quot;&gt;start_minimized&lt;br style=&quot;font-size: 7px;&quot;&gt;watcher&lt;br style=&quot;font-size: 7px;&quot;&gt;window_location&lt;br style=&quot;font-size: 7px;&quot;&gt;window_location : list&lt;br style=&quot;font-size: 7px;&quot;&gt;window_size&lt;br style=&quot;font-size: 7px;&quot;&gt;window_size : list&lt;/p&gt;&lt;hr style=&quot;font-size: 7px;&quot;&gt;&lt;p style=&quot;margin: 0px 0px 0px 4px; text-align: start; font-size: 7px; color: rgb(0, 0, 0);&quot;&gt;__init__()&lt;br style=&quot;font-size: 7px;&quot;&gt;_has_profile(exec_path)&lt;br style=&quot;font-size: 7px;&quot;&gt;get_calibration(dev_id, axis_id)&lt;br style=&quot;font-size: 7px;&quot;&gt;get_executable_list()&lt;br style=&quot;font-size: 7px;&quot;&gt;get_last_mode(profile_path)&lt;br style=&quot;font-size: 7px;&quot;&gt;get_profile(exec_path)&lt;br style=&quot;font-size: 7px;&quot;&gt;get_profile_with_regex(exec_path)&lt;br style=&quot;font-size: 7px;&quot;&gt;reload()&lt;br style=&quot;font-size: 7px;&quot;&gt;remove_profile(exec_path)&lt;br style=&quot;font-size: 7px;&quot;&gt;save()&lt;br style=&quot;font-size: 7px;&quot;&gt;set_calibration(dev_id, limits)&lt;br style=&quot;font-size: 7px;&quot;&gt;set_last_mode(profile_path, mode_name)&lt;br style=&quot;font-size: 7px;&quot;&gt;set_profile(exec_path, profile_path)&lt;/p&gt;" style="verticalAlign=top;align=left;overflow=fill;html=1;rounded=0;shadow=0;comic=0;labelBackgroundColor=none;strokeColor=black;strokeWidth=1;fillColor=#ffffff;fontFamily=Lucida Console;fontSize=7;" parent="1" vertex="1">
                    <mxGeometry x="870.96" y="1401.1000000000004" width="249.26" height="696" as="geometry"/>
                </mxCell>
                <mxCell id="node13" value="&lt;p style=&quot;margin: 4px 0px 0px; text-align: center; font-size: 7px; color: rgb(0, 0, 0);&quot;&gt;gremlin.event_handler.EventHandler&lt;/p&gt;&lt;hr style=&quot;font-size: 7px;&quot;&gt;&lt;p style=&quot;margin: 0px 0px 0px 4px; text-align: start; font-size: 7px; color: rgb(0, 0, 0);&quot;&gt;_active_mode : NoneType&lt;br style=&quot;font-size: 7px;&quot;&gt;_event_lookup : dict&lt;br style=&quot;font-size: 7px;&quot;&gt;_previous_mode : NoneType&lt;br style=&quot;font-size: 7px;&quot;&gt;active_mode&lt;br style=&quot;font-size: 7px;&quot;&gt;callbacks : dict&lt;br style=&quot;font-size: 7px;&quot;&gt;is_active&lt;br style=&quot;font-size: 7px;&quot;&gt;mode_changed&lt;br style=&quot;font-size: 7px;&quot;&gt;plugins : dict&lt;br style=&quot;font-size: 7px;&quot;&gt;previous_mode&lt;br style=&quot;font-size: 7px;&quot;&gt;process_callbacks : bool&lt;/p&gt;&lt;hr style=&quot;font-size: 7px;&quot;&gt;&lt;p style=&quot;margin: 0px 0px 0px 4px; text-align: start; font-size: 7px; color: rgb(0, 0, 0);&quot;&gt;__init__()&lt;br style=&quot;font-size: 7px;&quot;&gt;_install_plugins(callback)&lt;br style=&quot;font-size: 7px;&quot;&gt;_matching_callbacks(event)&lt;br style=&quot;font-size: 7px;&quot;&gt;add_callback(device_guid, mode, event, callback, permanent)&lt;br style=&quot;font-size: 7px;&quot;&gt;add_plugin(plugin)&lt;br style=&quot;font-size: 7px;&quot;&gt;build_event_lookup(inheritance_tree)&lt;br style=&quot;font-size: 7px;&quot;&gt;change_mode(new_mode)&lt;br style=&quot;font-size: 7px;&quot;&gt;clear()&lt;br style=&quot;font-size: 7px;&quot;&gt;pause()&lt;br style=&quot;font-size: 7px;&quot;&gt;process_event(event)&lt;br style=&quot;font-size: 7px;&quot;&gt;resume()&lt;br style=&quot;font-size: 7px;&quot;&gt;toggle_active()&lt;/p&gt;" style="verticalAlign=top;align=left;overflow=fill;html=1;rounded=0;shadow=0;comic=0;labelBackgroundColor=none;strokeColor=black;strokeWidth=1;fillColor=#ffffff;fontFamily=Lucida Console;fontSize=7;" parent="1" vertex="1">
                    <mxGeometry x="599.22" y="2360.9000000000005" width="362.73" height="410.39999999999964" as="geometry"/>
                </mxCell>
                <mxCell id="node14" value="&lt;p style=&quot;margin: 4px 0px 0px; text-align: center; font-size: 7px; color: rgb(0, 0, 0);&quot;&gt;gremlin.profile.Profile&lt;/p&gt;&lt;hr style=&quot;font-size: 7px;&quot;&gt;&lt;p style=&quot;margin: 0px 0px 0px 4px; text-align: start; font-size: 7px; color: rgb(0, 0, 0);&quot;&gt;devices : dict&lt;br style=&quot;font-size: 7px;&quot;&gt;merge_axes : list&lt;br style=&quot;font-size: 7px;&quot;&gt;parent : NoneType&lt;br style=&quot;font-size: 7px;&quot;&gt;plugins : list&lt;br style=&quot;font-size: 7px;&quot;&gt;settings&lt;br style=&quot;font-size: 7px;&quot;&gt;vjoy_devices : dict&lt;/p&gt;&lt;hr style=&quot;font-size: 7px;&quot;&gt;&lt;p style=&quot;margin: 0px 0px 0px 4px; text-align: start; font-size: 7px; color: rgb(0, 0, 0);&quot;&gt;__init__()&lt;br style=&quot;font-size: 7px;&quot;&gt;_parse_merge_axis(node)&lt;br style=&quot;font-size: 7px;&quot;&gt;build_inheritance_tree()&lt;br style=&quot;font-size: 7px;&quot;&gt;empty()&lt;br style=&quot;font-size: 7px;&quot;&gt;from_xml(fname)&lt;br style=&quot;font-size: 7px;&quot;&gt;get_device_modes(device_guid, device_type, device_name)&lt;br style=&quot;font-size: 7px;&quot;&gt;get_root_modes()&lt;br style=&quot;font-size: 7px;&quot;&gt;initialize_joystick_device(device, modes)&lt;br style=&quot;font-size: 7px;&quot;&gt;list_unused_vjoy_inputs()&lt;br style=&quot;font-size: 7px;&quot;&gt;to_xml(fname)&lt;/p&gt;" style="verticalAlign=top;align=left;overflow=fill;html=1;rounded=0;shadow=0;comic=0;labelBackgroundColor=none;strokeColor=black;strokeWidth=1;fillColor=#ffffff;fontFamily=Lucida Console;fontSize=7;" parent="1" vertex="1">
                    <mxGeometry x="1137.88" y="1594.3000000000002" width="353.40999999999985" height="309.60000000000036" as="geometry"/>
                </mxCell>
                <mxCell id="node15" value="&lt;p style=&quot;margin: 4px 0px 0px; text-align: center; font-size: 7px; color: rgb(0, 0, 0);&quot;&gt;gremlin.profile.Settings&lt;/p&gt;&lt;hr style=&quot;font-size: 7px;&quot;&gt;&lt;p style=&quot;margin: 0px 0px 0px 4px; text-align: start; font-size: 7px; color: rgb(0, 0, 0);&quot;&gt;default_delay : float&lt;br style=&quot;font-size: 7px;&quot;&gt;parent&lt;br style=&quot;font-size: 7px;&quot;&gt;startup_mode : NoneType&lt;br style=&quot;font-size: 7px;&quot;&gt;vjoy_as_input : dict&lt;br style=&quot;font-size: 7px;&quot;&gt;vjoy_initial_values : dict&lt;/p&gt;&lt;hr style=&quot;font-size: 7px;&quot;&gt;&lt;p style=&quot;margin: 0px 0px 0px 4px; text-align: start; font-size: 7px; color: rgb(0, 0, 0);&quot;&gt;__init__(parent)&lt;br style=&quot;font-size: 7px;&quot;&gt;from_xml(node)&lt;br style=&quot;font-size: 7px;&quot;&gt;get_initial_vjoy_axis_value(vid, aid)&lt;br style=&quot;font-size: 7px;&quot;&gt;set_initial_vjoy_axis_value(vid, aid, value)&lt;br style=&quot;font-size: 7px;&quot;&gt;to_xml()&lt;/p&gt;" style="verticalAlign=top;align=left;overflow=fill;html=1;rounded=0;shadow=0;comic=0;labelBackgroundColor=none;strokeColor=black;strokeWidth=1;fillColor=#ffffff;fontFamily=Lucida Console;fontSize=7;" parent="1" vertex="1">
                    <mxGeometry x="997.28" y="2461.7000000000003" width="258.6100000000001" height="208.80000000000018" as="geometry"/>
                </mxCell>
                <mxCell id="node17" value="&lt;p style=&quot;margin: 4px 0px 0px; text-align: center; font-size: 7px; color: rgb(0, 0, 0);&quot;&gt;gremlin.ui.common.ModeWidget&lt;/p&gt;&lt;hr style=&quot;font-size: 7px;&quot;&gt;&lt;p style=&quot;margin: 0px 0px 0px 4px; text-align: start; font-size: 7px; color: rgb(0, 0, 0);&quot;&gt;label&lt;br style=&quot;font-size: 7px;&quot;&gt;main_layout&lt;br style=&quot;font-size: 7px;&quot;&gt;mode_changed&lt;br style=&quot;font-size: 7px;&quot;&gt;mode_list : list&lt;br style=&quot;font-size: 7px;&quot;&gt;profile : NoneType&lt;br style=&quot;font-size: 7px;&quot;&gt;selector&lt;/p&gt;&lt;hr style=&quot;font-size: 7px;&quot;&gt;&lt;p style=&quot;margin: 0px 0px 0px 4px; text-align: start; font-size: 7px; color: rgb(0, 0, 0);&quot;&gt;__init__(parent)&lt;br style=&quot;font-size: 7px;&quot;&gt;_create_widget()&lt;br style=&quot;font-size: 7px;&quot;&gt;_inheritance_tree_to_labels(labels, tree, level)&lt;br style=&quot;font-size: 7px;&quot;&gt;_mode_changed_cb(idx)&lt;br style=&quot;font-size: 7px;&quot;&gt;populate_selector(profile_data, current_mode)&lt;/p&gt;" style="verticalAlign=top;align=left;overflow=fill;html=1;rounded=0;shadow=0;comic=0;labelBackgroundColor=none;strokeColor=black;strokeWidth=1;fillColor=#ffffff;fontFamily=Lucida Console;fontSize=7;" parent="1" vertex="1">
                    <mxGeometry x="1711.37" y="1636.3000000000002" width="276.44000000000005" height="225.60000000000036" as="geometry"/>
                </mxCell>
                <mxCell id="node18" value="&lt;p style=&quot;margin: 4px 0px 0px; text-align: center; font-size: 7px; color: rgb(0, 0, 0);&quot;&gt;gremlin.ui.ui_gremlin.Ui_Gremlin&lt;/p&gt;&lt;hr style=&quot;font-size: 7px;&quot;&gt;&lt;p style=&quot;margin: 0px 0px 0px 4px; text-align: start; font-size: 7px; color: rgb(0, 0, 0);&quot;&gt;actionAbout&lt;br style=&quot;font-size: 7px;&quot;&gt;actionActivate&lt;br style=&quot;font-size: 7px;&quot;&gt;actionCalibration&lt;br style=&quot;font-size: 7px;&quot;&gt;actionCreate1to1Mapping&lt;br style=&quot;font-size: 7px;&quot;&gt;actionDeviceInformation&lt;br style=&quot;font-size: 7px;&quot;&gt;actionEmpty&lt;br style=&quot;font-size: 7px;&quot;&gt;actionExit&lt;br style=&quot;font-size: 7px;&quot;&gt;actionGenerate&lt;br style=&quot;font-size: 7px;&quot;&gt;actionHTMLCheatsheet&lt;br style=&quot;font-size: 7px;&quot;&gt;actionInputRepeater&lt;br style=&quot;font-size: 7px;&quot;&gt;actionInputViewer&lt;br style=&quot;font-size: 7px;&quot;&gt;actionLoadProfile&lt;br style=&quot;font-size: 7px;&quot;&gt;actionLogDisplay&lt;br style=&quot;font-size: 7px;&quot;&gt;actionManageCustomModules&lt;br style=&quot;font-size: 7px;&quot;&gt;actionManageModes&lt;br style=&quot;font-size: 7px;&quot;&gt;actionMergeAxis&lt;br style=&quot;font-size: 7px;&quot;&gt;actionModifyProfile&lt;br style=&quot;font-size: 7px;&quot;&gt;actionNewProfile&lt;br style=&quot;font-size: 7px;&quot;&gt;actionOpen&lt;br style=&quot;font-size: 7px;&quot;&gt;actionOptions&lt;br style=&quot;font-size: 7px;&quot;&gt;actionPDFCheatsheet&lt;br style=&quot;font-size: 7px;&quot;&gt;actionRecent&lt;br style=&quot;font-size: 7px;&quot;&gt;actionSaveProfile&lt;br style=&quot;font-size: 7px;&quot;&gt;actionSaveProfileAs&lt;br style=&quot;font-size: 7px;&quot;&gt;actionSwapDevices&lt;br style=&quot;font-size: 7px;&quot;&gt;action_tray_enable&lt;br style=&quot;font-size: 7px;&quot;&gt;action_tray_quit&lt;br style=&quot;font-size: 7px;&quot;&gt;action_tray_show&lt;br style=&quot;font-size: 7px;&quot;&gt;devices&lt;br style=&quot;font-size: 7px;&quot;&gt;horizontalLayout&lt;br style=&quot;font-size: 7px;&quot;&gt;horizontalLayout_3&lt;br style=&quot;font-size: 7px;&quot;&gt;main&lt;br style=&quot;font-size: 7px;&quot;&gt;menuActions&lt;br style=&quot;font-size: 7px;&quot;&gt;menuFile&lt;br style=&quot;font-size: 7px;&quot;&gt;menuRecent&lt;br style=&quot;font-size: 7px;&quot;&gt;menuTools&lt;br style=&quot;font-size: 7px;&quot;&gt;menu_Help&lt;br style=&quot;font-size: 7px;&quot;&gt;menubar&lt;br style=&quot;font-size: 7px;&quot;&gt;statusbar&lt;br style=&quot;font-size: 7px;&quot;&gt;tab&lt;br style=&quot;font-size: 7px;&quot;&gt;tab_2&lt;br style=&quot;font-size: 7px;&quot;&gt;toolBar&lt;br style=&quot;font-size: 7px;&quot;&gt;tray_icon&lt;br style=&quot;font-size: 7px;&quot;&gt;tray_menu&lt;/p&gt;&lt;hr style=&quot;font-size: 7px;&quot;&gt;&lt;p style=&quot;margin: 0px 0px 0px 4px; text-align: start; font-size: 7px; color: rgb(0, 0, 0);&quot;&gt;retranslateUi(Gremlin)&lt;br style=&quot;font-size: 7px;&quot;&gt;setupUi(Gremlin)&lt;/p&gt;" style="verticalAlign=top;align=left;overflow=fill;html=1;rounded=0;shadow=0;comic=0;labelBackgroundColor=none;strokeColor=black;strokeWidth=1;fillColor=#ffffff;fontFamily=Lucida Console;fontSize=7;" parent="1" vertex="1">
                    <mxGeometry x="2005.57" y="1342.3000000000002" width="210.02999999999997" height="813.6000000000004" as="geometry"/>
                </mxCell>
                <mxCell id="node19" value="&lt;p style=&quot;margin: 4px 0px 0px; text-align: center; font-size: 7px; color: rgb(0, 0, 0);&quot;&gt;gremlin.ui.user_plugin_management.ModuleListWidget&lt;/p&gt;&lt;hr style=&quot;font-size: 7px;&quot;&gt;&lt;p style=&quot;margin: 0px 0px 0px 4px; text-align: start; font-size: 7px; color: rgb(0, 0, 0);&quot;&gt;content&lt;br style=&quot;font-size: 7px;&quot;&gt;content_layout&lt;br style=&quot;font-size: 7px;&quot;&gt;stretch_item&lt;br style=&quot;font-size: 7px;&quot;&gt;widget_list : list&lt;/p&gt;&lt;hr style=&quot;font-size: 7px;&quot;&gt;&lt;p style=&quot;margin: 0px 0px 0px 4px; text-align: start; font-size: 7px; color: rgb(0, 0, 0);&quot;&gt;__init__(parent)&lt;br style=&quot;font-size: 7px;&quot;&gt;add_module(module_widget)&lt;br style=&quot;font-size: 7px;&quot;&gt;clear()&lt;br style=&quot;font-size: 7px;&quot;&gt;remove_module(module_widget)&lt;/p&gt;" style="verticalAlign=top;align=left;overflow=fill;html=1;rounded=0;shadow=0;comic=0;labelBackgroundColor=none;strokeColor=black;strokeWidth=1;fillColor=#ffffff;fontFamily=Lucida Console;fontSize=7;" parent="1" vertex="1">
                    <mxGeometry x="2267.54" y="2984.7000000000003" width="332.0999999999999" height="175.20000000000027" as="geometry"/>
                </mxCell>
                <mxCell id="node20" value="&lt;p style=&quot;margin: 4px 0px 0px; text-align: center; font-size: 7px; color: rgb(0, 0, 0);&quot;&gt;gremlin.ui.user_plugin_management.ModuleManagementView&lt;/p&gt;&lt;hr style=&quot;font-size: 7px;&quot;&gt;&lt;p style=&quot;margin: 0px 0px 0px 4px; text-align: start; font-size: 7px; color: rgb(0, 0, 0);&quot;&gt;add_module&lt;br style=&quot;font-size: 7px;&quot;&gt;btn_add_module&lt;br style=&quot;font-size: 7px;&quot;&gt;controller : NoneType&lt;br style=&quot;font-size: 7px;&quot;&gt;left_panel&lt;br style=&quot;font-size: 7px;&quot;&gt;module_list&lt;br style=&quot;font-size: 7px;&quot;&gt;right_panel&lt;/p&gt;&lt;hr style=&quot;font-size: 7px;&quot;&gt;&lt;p style=&quot;margin: 0px 0px 0px 4px; text-align: start; font-size: 7px; color: rgb(0, 0, 0);&quot;&gt;__init__(parent)&lt;br style=&quot;font-size: 7px;&quot;&gt;_prompt_user_for_module()&lt;br style=&quot;font-size: 7px;&quot;&gt;refresh_ui()&lt;/p&gt;" style="verticalAlign=top;align=left;overflow=fill;html=1;rounded=0;shadow=0;comic=0;labelBackgroundColor=none;strokeColor=black;strokeWidth=1;fillColor=#ffffff;fontFamily=Lucida Console;fontSize=7;" parent="1" vertex="1">
                    <mxGeometry x="2247.33" y="2470.1000000000004" width="372.52" height="192" as="geometry"/>
                </mxCell>
                <mxCell id="node21" value="&lt;p style=&quot;margin: 4px 0px 0px; text-align: center; font-size: 7px; color: rgb(0, 0, 0);&quot;&gt;gremlin.ui.user_plugin_management.ModuleManagementController&lt;/p&gt;&lt;hr style=&quot;font-size: 7px;&quot;&gt;&lt;p style=&quot;margin: 0px 0px 0px 4px; text-align: start; font-size: 7px; color: rgb(0, 0, 0);&quot;&gt;profile_data&lt;br style=&quot;font-size: 7px;&quot;&gt;view&lt;/p&gt;&lt;hr style=&quot;font-size: 7px;&quot;&gt;&lt;p style=&quot;margin: 0px 0px 0px 4px; text-align: start; font-size: 7px; color: rgb(0, 0, 0);&quot;&gt;__init__(profile_data, parent)&lt;br style=&quot;font-size: 7px;&quot;&gt;_connect_instance_signals(instance, widget)&lt;br style=&quot;font-size: 7px;&quot;&gt;_create_module_instance(name, module_data)&lt;br style=&quot;font-size: 7px;&quot;&gt;_create_module_widget(module_data)&lt;br style=&quot;font-size: 7px;&quot;&gt;_create_value_changed_cb(variable, widget, callback)&lt;br style=&quot;font-size: 7px;&quot;&gt;_update_value_variable(data, widget, variable)&lt;br style=&quot;font-size: 7px;&quot;&gt;configure_instance(instance, widget)&lt;br style=&quot;font-size: 7px;&quot;&gt;create_new_module_instance(module_widget, module_data)&lt;br style=&quot;font-size: 7px;&quot;&gt;module_list()&lt;br style=&quot;font-size: 7px;&quot;&gt;new_module(fname)&lt;br style=&quot;font-size: 7px;&quot;&gt;refresh_module_list()&lt;br style=&quot;font-size: 7px;&quot;&gt;remove_instance(instance, widget)&lt;br style=&quot;font-size: 7px;&quot;&gt;remove_module(file_name)&lt;br style=&quot;font-size: 7px;&quot;&gt;rename_instance(instance, widget, name)&lt;/p&gt;" style="verticalAlign=top;align=left;overflow=fill;html=1;rounded=0;shadow=0;comic=0;labelBackgroundColor=none;strokeColor=black;strokeWidth=1;fillColor=#ffffff;fontFamily=Lucida Console;fontSize=7;" parent="1" vertex="1">
                    <mxGeometry x="2233.72" y="1594.3000000000002" width="399.74000000000024" height="309.60000000000036" as="geometry"/>
                </mxCell>
                <mxCell id="node23" value="&lt;p style=&quot;margin: 4px 0px 0px; text-align: center; font-size: 7px; color: rgb(0, 0, 0);&quot;&gt;threading.Timer&lt;/p&gt;&lt;hr style=&quot;font-size: 7px;&quot;&gt;&lt;p style=&quot;margin: 0px 0px 0px 4px; text-align: start; font-size: 7px; color: rgb(0, 0, 0);&quot;&gt;args : NoneType, list&lt;br style=&quot;font-size: 7px;&quot;&gt;finished&lt;br style=&quot;font-size: 7px;&quot;&gt;function&lt;br style=&quot;font-size: 7px;&quot;&gt;interval&lt;br style=&quot;font-size: 7px;&quot;&gt;kwargs : dict, NoneType&lt;/p&gt;&lt;hr style=&quot;font-size: 7px;&quot;&gt;&lt;p style=&quot;margin: 0px 0px 0px 4px; text-align: start; font-size: 7px; color: rgb(0, 0, 0);&quot;&gt;__init__(interval, function, args, kwargs)&lt;br style=&quot;font-size: 7px;&quot;&gt;cancel()&lt;br style=&quot;font-size: 7px;&quot;&gt;run()&lt;/p&gt;" style="verticalAlign=top;align=left;overflow=fill;html=1;rounded=0;shadow=0;comic=0;labelBackgroundColor=none;strokeColor=black;strokeWidth=1;fillColor=#ffffff;fontFamily=Lucida Console;fontSize=7;" parent="1" vertex="1">
                    <mxGeometry x="1549.5" y="2984.7000000000003" width="246.17000000000007" height="175.20000000000027" as="geometry"/>
                </mxCell>
                <mxCell id="node24" value="&lt;p style=&quot;margin: 4px 0px 0px; text-align: center; font-size: 7px; color: rgb(0, 0, 0);&quot;&gt;threading._RLock&lt;/p&gt;&lt;hr style=&quot;font-size: 7px;&quot;&gt;&lt;p style=&quot;margin: 0px 0px 0px 4px; text-align: start; font-size: 7px; color: rgb(0, 0, 0);&quot;&gt;__enter__&lt;br style=&quot;font-size: 7px;&quot;&gt;_block&lt;br style=&quot;font-size: 7px;&quot;&gt;_count : int&lt;br style=&quot;font-size: 7px;&quot;&gt;_owner : NoneType&lt;/p&gt;&lt;hr style=&quot;font-size: 7px;&quot;&gt;&lt;p style=&quot;margin: 0px 0px 0px 4px; text-align: start; font-size: 7px; color: rgb(0, 0, 0);&quot;&gt;__exit__(t, v, tb)&lt;br style=&quot;font-size: 7px;&quot;&gt;__init__()&lt;br style=&quot;font-size: 7px;&quot;&gt;__repr__()&lt;br style=&quot;font-size: 7px;&quot;&gt;_acquire_restore(state)&lt;br style=&quot;font-size: 7px;&quot;&gt;_is_owned()&lt;br style=&quot;font-size: 7px;&quot;&gt;_release_save()&lt;br style=&quot;font-size: 7px;&quot;&gt;acquire(blocking, timeout)&lt;br style=&quot;font-size: 7px;&quot;&gt;release()&lt;/p&gt;" style="verticalAlign=top;align=left;overflow=fill;html=1;rounded=0;shadow=0;comic=0;labelBackgroundColor=none;strokeColor=black;strokeWidth=1;fillColor=#ffffff;fontFamily=Lucida Console;fontSize=7;" parent="1" vertex="1">
                    <mxGeometry x="1602.94" y="4049.7000000000003" width="165.28999999999996" height="242.4000000000001" as="geometry"/>
                </mxCell>
            </root>
        </mxGraphModel>
    </diagram>
</mxfile>